<?xml version="1.0" encoding="UTF-8"?>
<svg width="347px" height="347px" viewBox="0 0 347 347" version="1.1" xmlns="http://www.w3.org/2000/svg" xmlns:xlink="http://www.w3.org/1999/xlink">
    <!-- Generator: Sketch 56.3 (81716) - https://sketch.com -->
    <title>Group</title>
    <desc>Created with Sketch.</desc>
    <g id="Page-1" stroke="none" stroke-width="1" fill="none" fill-rule="evenodd">
        <g id="walkthrough-1" transform="translate(-33.000000, -198.000000)" stroke="#E60000">
            <g id="Group" transform="translate(33.000000, 198.000000)">
                <path d="M198.879629,40.5125865 C184.862847,26.4958045 162.137153,26.4958045 148.120371,40.5125865 L40.5125865,148.120371 C26.4958045,162.137153 26.4958045,184.862847 40.5125865,198.879629 L148.120371,306.487414 C162.137153,320.504195 184.862847,320.504195 198.879629,306.487414 L306.487414,198.879629 C320.504195,184.862847 320.504195,162.137153 306.487414,148.120371 L198.879629,40.5125865 Z" id="Rectangle" stroke-width="2"></path>
                <path d="M198.404906,72.5230567 C184.374164,58.4923144 161.625836,58.4923144 147.595094,72.5230567 L72.5230567,147.595094 C58.4923144,161.625836 58.4923144,184.374164 72.5230567,198.404906 L147.595094,273.476943 C161.625836,287.507686 184.374164,287.507686 198.404906,273.476943 L273.476943,198.404906 C287.507686,184.374164 287.507686,161.625836 273.476943,147.595094 L198.404906,72.5230567 Z" id="Rectangle" stroke-width="2"></path>
                <path d="M198.950976,105.542139 C184.89479,91.4859535 162.10521,91.4859535 148.049024,105.542139 L105.542139,148.049024 C91.4859535,162.10521 91.4859535,184.89479 105.542139,198.950976 L148.049024,241.457861 C162.10521,255.514046 184.89479,255.514046 198.950976,241.457861 L241.457861,198.950976 C255.514046,184.89479 255.514046,162.10521 241.457861,148.049024 L198.950976,105.542139 Z" id="Rectangle" stroke-width="2"></path>
                <path d="M204.734079,14.9375792 C187.483974,-2.3125264 159.516026,-2.3125264 142.265921,14.9375792 L14.9375792,142.265921 C-2.3125264,159.516026 -2.3125264,187.483974 14.9375792,204.734079 L142.265921,332.062421 C159.516026,349.312526 187.483974,349.312526 204.734079,332.062421 L332.062421,204.734079 C349.312526,187.483974 349.312526,159.516026 332.062421,142.265921 L204.734079,14.9375792 Z" id="Rectangle-Copy" stroke-width="4"></path>
            </g>
        </g>
    </g>
</svg>